<svg xmlns="http://www.w3.org/2000/svg" viewBox="0 0 37.83 65.59"><defs><style>.cls-1{fill:#fff;}.cls-2{fill:#911ae5;}</style></defs><g id="Layer_2" data-name="Layer 2"><g id="Layer_1-2" data-name="Layer 1"><circle class="cls-1" cx="4.73" cy="56.25" r="4.73"/><rect class="cls-2" width="9.47" height="46.36" rx="4.73"/><rect class="cls-2" x="10.67" y="0.05" width="9.47" height="28.99" rx="4.73" transform="translate(29.94 -0.86) rotate(90)"/><path class="cls-2" d="M24.71,25.16c-4.61-2.47-10.78.33-10.78,4.81V59.86c0,4.48,6.17,7.28,10.78,4.81,7.91-4.24,13.12-11.5,13.12-19.75S32.62,29.4,24.71,25.16Zm.85,25.19c-1.27.68-3-.09-3-1.32V40.8c0-1.23,1.7-2,3-1.32a6.32,6.32,0,0,1,3.61,5.44A6.3,6.3,0,0,1,25.56,50.35Z"/></g></g></svg>